<svg xmlns="http://www.w3.org/2000/svg" viewBox="0 0 1004.84 177.96"><path d="M826.14,152.21c-2.18-2.11-6.26-2.4-8.63-2.5-.09-1.7-.18-9.28-14.5-27.16-10.58,6.35-42.74,16.06-51.75,14.35-.31,10.28-.18,25.79,7.54,34.24,4.13,4.52,12,3.62,14.17,3.55,4.25,4.12,6.5,2.51,7.91-1.39.44-1.31,10.87-3.59,16.51-4.61,4.72,3.62,7.07,3.29,8.06-2.3.79-2.19,9-4.94,12-12.65,3.87-1.15,11.56,4.65,3.22,8.08-11.46,4.71-4.14,7.79,1.77,7C830.25,167.86,830.76,156.7,826.14,152.21Z" fill="#ff781d"/><path d="M776.83,153.85c-1.55-2-4.62-7.33-5.27-10.78,2,0,16.42-4.59,19.86-5.81,1,4.24,1.83,11.45,1.83,11.45S784.53,152.68,776.83,153.85Z" fill="#6cf"/><path d="M810.18,87.49c-1.66-6.46-7.93-12.7-12.45-19.59-1.27-1.82-7.68-25.24-10.72-11,.2,16.33-25.21,6.43-43.94,20-2.73,4.64-10.59-11.82-14.31-7.34-.79,8.8,2.31,13.9.22,27.91C719.35,156.83,827,131.63,810.18,87.49Zm-20-26.11c0,.4.77,1-.59,1.26.18-.47.35-.94.52-1.41A1,1,0,0,0,790.14,61.38Z" fill="#d8d8d8"/><path d="M761.3,96.6A3.89,3.89,0,0,0,758,94.87a3.81,3.81,0,0,0-2.06.68,4.13,4.13,0,0,0-1.56,2.35,3,3,0,0,0,.43,2.23,3.14,3.14,0,0,0,1.31,1.07,2.94,2.94,0,0,0,.71.5l.71.25a2.84,2.84,0,0,0,1.53-.09l.38-.13a2.11,2.11,0,0,0,1-.6l.07,0a2.75,2.75,0,0,0,1.13-1.21l.25-.7a3.05,3.05,0,0,0-.09-1.53A3.26,3.26,0,0,0,761.3,96.6Z" fill="#fff"/><path d="M784.09,89.65a2.07,2.07,0,0,0-.87-.7,2.85,2.85,0,0,0-1.46-.3,5.39,5.39,0,0,0-2.31.72,3.54,3.54,0,0,0-1.62,3.09A3.6,3.6,0,0,0,779.07,95a3.26,3.26,0,0,0,3.73.36,2.18,2.18,0,0,0,.52-.28,3.14,3.14,0,0,0,1.23-1.83l.23-1.06a2.84,2.84,0,0,0-.09-1.53A2.11,2.11,0,0,0,784.09,89.65Z" fill="#fff"/><path d="M820.29,72.16c1.93,2.63-1.27,34.19-9.55,34.29,8.07-17.82-9.77-29.56-16-47.25-9.07-19.73-5.31.81-13.15,7.31-.51.16-19.59.16-36.8,8.35-10.9,10.51-17.42-37.78-17,28.61,1.56.75-2.44,3.06,4.35,16.92,3,2.63,17.56,14.87-3.3,2.75C653.44,60.05,792.27-26.64,820.29,72.16Z" fill="#d4f9ff"/><path d="M775.76,36.48c-3.17-3.85-9.35-5.15-14.09-5.24-4.27-.08-10.5,2.95-9.18,8.22.69,2.75,3.37,3.61,5.83,4.17l1.1.27a22.85,22.85,0,0,0,7.13.79C770.31,44.64,780.13,41.78,775.76,36.48Z" fill="#e3ffff"/><path d="M786.57,40.37a3.19,3.19,0,0,0-3.09-2,3.4,3.4,0,0,0-2.85,1.79,2.17,2.17,0,0,0,.22,2.29A3,3,0,0,0,783,44.59a2.9,2.9,0,0,0,2.08-.29,2.68,2.68,0,0,0,1.82-1.91A2.74,2.74,0,0,0,786.57,40.37Z" fill="#e3ffff"/><path d="M759.33,107.27a.55.55,0,0,1-.35-1A.55.55,0,0,1,759.33,107.27Zm3.14-1.58a.55.55,0,0,0,.35,1A.55.55,0,0,0,762.47,105.69Zm-2.32,4a.34.34,0,0,0-.16-.13.36.36,0,0,0-.2-.06.41.41,0,0,0-.22,0l-.13.06a.6.6,0,0,0-.18.21l0,.13a.57.57,0,0,0,0,.29v0a.59.59,0,0,0,.27.32.5.5,0,0,0,.21,0,.38.38,0,0,0,.21,0l.13-.07a.55.55,0,0,0,.19-.21l0-.13a.57.57,0,0,0,0-.29v0A.44.44,0,0,0,760.15,109.66Zm3.13-.92a.55.55,0,0,0,.35,1A.55.55,0,0,0,763.28,108.74Zm-2,3.33a.55.55,0,0,0,.35,1A.55.55,0,0,0,761.26,112.07Zm19.4-10.67a.55.55,0,0,0,.35,1A.55.55,0,0,0,780.66,101.4Zm.49,2.06a.55.55,0,0,0,.35,1A.55.55,0,0,0,781.15,103.46Zm3.45-3a.55.55,0,0,0,.35,1A.55.55,0,0,0,784.6,100.47Zm.07,2.7a.55.55,0,0,0,.35,1A.55.55,0,0,0,784.67,103.17Zm-.73,3.43a.55.55,0,0,0,.35,1A.55.55,0,0,0,783.94,106.6Zm10.24-72.19c-28.56-15.6-64.17-5-80.5,22.61-17.76,33.13.05,66.91,35.9,74.62-1.46,1.14-2.07,2.62-1.33,3.93,1.58,2.42,3,1.46,2.49,5.24-.41,12.36.83,29.08,12.27,33.75,7.75,2.74,8.27-2.1,11.78,2.62a3.68,3.68,0,0,0,2.54.78c2.31-.14,3.32-1.71,3.47-3.9.38-1.47,1.63-1.15,3.15-1.63,3.89-.91,7.44-1.77,11.33-2.77,4.44-1.87,3.94,4,8.45,1.14,1.76-.82,1.09-3,2.1-4.45,4.32-3.41,10-5.68,11.43-11.89,3.49-1.33,8.74,2.27,5.54,5.85-2.34,1.95-5.66,1.83-8.25,4.1-1,1.2-.35,2.57,1.1,4,4,3.76,10.3.45,12.24-3.74,3.43-7.51-1.19-15.6-9-15.23-.6,0-1.21.15-1.36-.68-1.58-9.43-7.51-17.5-13-25.33.51-3.14,2.79-3.69-.34-6.85,4.4-5.51,9.38-11,12.48-17.69C828.27,75.37,817,46.29,794.18,34.41Zm33.31,121.45c3.93,11.79-10.27,17.39-12.45,9.68,1.64-2.64,5.91-2.46,8.37-4.58,3.84-4.77-1.43-8-5.84-7.83C816.71,146.61,826.92,152.25,827.49,155.86ZM807,128.44c10.16,15.05,16.11,27.85-1.41,36.7-1.57-8-3.2-16.88-7.51-23.54,1.58,7.71,5.87,15.18,6.3,23.38.51,2,0,5.28-2.42,5.55-5.36.09-9.29-17.27-10.23-19.25a4.48,4.48,0,0,1-.86.38,92.55,92.55,0,0,0,6.51,16.59l-16.32,4a101.39,101.39,0,0,0-2.54-16.93,5.16,5.16,0,0,1-.93.12c6.59,27.16-2.15,23.69-4.79,17-3.55-7.38-3.12-15.31-5.67-22.62-.93,2.44.8,6.55,1,9.28A81.11,81.11,0,0,0,771.23,171c0,1,1.69,2.46.72,3.09-19.8,4-21.21-22.33-20.24-36.21,21.61,2.21,36.53-1.32,51.81-14.35C804.68,125.18,805.8,126.81,807,128.44Zm-2.86-13.53c-7.7,7.92-18.35,11.16-28.81,13.88-17.21,4.81-36.34,3.63-44.22-12.61-3.75-8.52-2-18.24-.75-26.95-.74-7.19-1.82-13.91-.92-21.1a29.47,29.47,0,0,1,6.36,4.66c2.17,1.64,3.34,4.53,5.62,5.12,7.06-3.67,12.87-6.54,22.58-8.69,32.19-7,13.66,4.81,25.57-17C794,58,796.3,65,799.61,71.44,812.29,86.49,817.68,100.2,804.12,114.91Zm7.57-9c-.82,1,.6-2.74.66-3.39a24.83,24.83,0,0,0-.74-14.19c-2.67-7.68-8.42-13-12.26-19.65-2.64-6.08-5.36-13.35-9.88-18-4,3.89-4.47,10.19-6.19,14.73A94.07,94.07,0,0,0,766,67.58c-38.45,9.8-14.9,13.69-34.6.59-1.14-.42-2.81-2.37-3.07-.35a82,82,0,0,0,.93,20.67C727,106.41,725.4,117,740.14,128c-51.07-20.19-38-85.39,10.84-98.08C800.07,17.64,838.48,66.55,811.69,105.9ZM733.11,86c-.56-4.07-1.36-7.85-1.21-12,2.41,2,6.15,3.89,6.75,6.74C729.9,72.17,735.09,84.16,733.11,86Zm57.32-27.6c-1,2.37-3.87,9-2.27,9.33,2.61-11.41,4.61,1.08,7.17,1.69A67.48,67.48,0,0,0,790.43,58.41Zm-28.33,39A4.2,4.2,0,0,1,754,99.48,4.2,4.2,0,0,1,762.1,97.36Zm-.71.19c-2.92-6.79-10.76,1.26-4.44,4.16-4.65-4.3,4.11-8.22,4.39-2.24A3.48,3.48,0,0,0,761.39,97.55Zm24-6.4a4.2,4.2,0,0,1-8.12,2.11A4.2,4.2,0,0,1,785.42,91.15Zm-.71.18c-2.92-6.78-10.76,1.26-4.44,4.16-4.65-4.3,4.11-8.21,4.38-2.24A3.39,3.39,0,0,0,784.71,91.33ZM773.18,105.4c.74,2.08,2.48,4.22,4.7,2.72-3.74-.5-3.69-2.12-4.89-5.09-.37-1.61-1.62-3.09-.93-4.59,4.17-3.65,1.81-4.14-2-2.82-1.24.53-4.16.55-2.81,2.34,1.15,1.16,3.44,0,3.85,2,.83,3.6,1.55,8.1-2,10.37,3.3.75,3.47-4.12,3.39-6.42C772.73,104.36,773,105,773.18,105.4ZM793,101.66c8.37-2.85,10.9.06,13.12-.89-4.23-1.16-9.35-2-13.27.69Zm-38.12,4.87c-5.43-1.31-8.36-1.9-13.5-.85C743,104,753.16,104.11,754.84,106.53Zm37.28-7.68c3.17-3.7,7.9-4.83,12.54-5.52-.41,1.21-1.33,1-2.6,1.38-3.82.68-7,1.51-9.78,4.43Zm-38.19,11c-6-.48-8.41-.28-13.4,1.66C741.73,109.45,751.45,108.2,753.93,109.89Zm.27,3.49c-6.85.72-7.91,4.56-11.72,6C745.48,116.52,750.25,112.29,754.2,113.38ZM800,88.93c-3.68,2.16-8.67,3.14-10.82,7.52C789.57,94,796.29,88.55,800,88.93ZM770.85,43.54c-12.2,4.06-25.31-4.22-14-10.39C770.46,26.9,785.91,37.68,770.85,43.54ZM759,33.08c-7.38,2.51-7.42,7.75-.63,9.93,5.95,2.12,17.56.24,17.93-5.52C776,32.21,764.37,31,759,33.08Zm25.85,11a3.08,3.08,0,0,1-2.16-5.76C786.74,36.71,788.59,42.75,784.83,44.06Zm-1.73-5.14c-5.17,3.12,3.36,7.51,3,1.62h0A2.42,2.42,0,0,0,783.1,38.92Zm-2.28,109.62a1.83,1.83,0,0,1-1.16-3.47A1.83,1.83,0,0,1,780.82,148.54Zm-.93-2.78a1.1,1.1,0,0,0,.7,2.09A1.1,1.1,0,0,0,779.89,145.76Zm7,6c-3.31,1.09-8.46,2.35-10.85,2.23-.59-1.21-5.54-11.46-5.55-11.49a55.09,55.09,0,0,0,21.52-6s1.58,11.93,1.67,12.67C792.19,149.9,788.38,151.21,786.89,151.75Zm-10.37,1.56c5.8-.75,9-1.64,16.37-4.59l-1.47-11.13a55.6,55.6,0,0,1-19.81,5.54Z"/><path d="M24.9,125.68C5.54,124.37-.28,109.32,1.28,91.83H24.9c0,1.8-.12,9.27.33,9.74,5.13.67,6.05.19,10.55.33,19.32-.14,55.18.32,59.87-.24.77-1.23,1.37-25.49-.93-23.43-3.8-.28-56.21,0-68.41-.11-1.42.77-14.73-1.51-19.79-9C2.39,65,.86,55.85,1.28,53.39-1.09,3.58,11.12,6.29,55.57,6.78,98.14,7,122.47.61,120.18,40.63H96.07c.83-14.61-1.94-9-7.44-10.07H31.34c-6.81.28-6.61-1.83-6.44,8.2.66,9.13-2.14,16.62,3.16,15.55,72.1,2,95.66-12.44,92.12,42.29.92,29.52-19.52,30-41.17,29.08Zm113,38V29.9c78,1.87,100.24-12.13,97.1,40.16-.83,24.75,2.23,31-2.43,42.74-9.44,15.77-19.25,12.45-33.68,12.88H161.3v38Zm29.06-61.43c2.76-.08,40.61.2,43.82-.17,1.23.31.57-2.52.77-5.47,0-.1,0-.38,0-1-.27-10.4.58-40-.41-42-7.37-.6-42.71-.14-48.71-.15-2.52-1.17-.46,34.75-1.08,41.88C162.09,97.55,158.4,103.49,166.91,102.23Zm103.55,23.45c-32.46-2-21.45-39.41-23.29-59.61h73.65c-.92-5.4,2.92-14.32-4.25-12.71h-69.4V29.9c114.32,1.08,95.47-15,97.1,95.78Zm5.78-23.45h44.58V86.87h-50.2C271.9,92.74,266.63,104.35,276.24,102.23Zm103.54,23.45c-10.58.16-23.38-9.7-23.29-23.28V53.18a22.33,22.33,0,0,1,6.94-16.34,22.33,22.33,0,0,1,16.35-6.94h73.65V53.35c-1.75.1-71.14-.22-72.59.17-2.24.42-.3,14-.9,25,.62,12.66-1.78,25.05,2.22,23.6.7.08,3.36,0,3.41.06h68v23.45Zm110.64,0c-24.81-3.28-23.79-20.05-23.28-44s-2.54-33.6,5.2-43c13.77-14.59,23.6-7,52.16-8.83,49.68-3.54,38.38,23.19,39.74,59.61H490.59c1.07,6-3.57,14.38,5.61,12.72h68v23.45Zm.17-57h50.2c-.53-3.21,1.29-16.5-1.36-15.25-7.3-.28-10.6,0-24.91-.11C484.79,54.05,491.3,48.68,490.59,68.71Zm115.43,57c-11.19.11-23.87-9.47-23.78-23.78V30.56C582.12,19.37,591.7,6.69,606,6.78h94.79V30.56s-57.32,0-80.15,0c-9.06.06-4.84-.14-13.32.11-3.11-1.44-.58,19.72-1.33,36,.69,18.29-1.88,37.34,2.07,35.22,6.24.15,2.9,0,5.86.06h86.87v23.78Zm248.52,0c-10.69.18-23.53-9.61-23.45-23.28V1h23.45V29.9H891V53.35H854.54c.17,3-.4,47.36.33,48.55,2.35.74,33,.15,36.16.33v23.45Zm74.81,0c-13.37,0-25-12.75-23.28-27.58h23.45c-.87,6.78,4.65,3.33,9,4.13h38c5.11,2,3.18-10.48,2.64-12.53-6.17-.79-50,.58-54.69-.67-13.94-3.18-19.69-15.42-18.44-28.93C905.29,47.24,908,38.78,919,32.4c12.35-4.91,12.4-1.58,32.94-2.5,31.31-.57,51.41-2.58,51.45,27.58H979.72c.83-6.67-4.05-3.39-7.3-4.13H933.27c-2.9.22-4.18-1.38-3.75,7.11-.21,5.94.09,5.61,3.45,5.61,12.69.88,52-2.63,58.95,3.23,15.78,8,13.11,37.27,7.73,45.57C988.75,129,981.39,125,966.32,125.68Z" fill="#d4f9ff" stroke="#6cf" stroke-miterlimit="10" stroke-width="2"/></svg>