<svg xmlns="http://www.w3.org/2000/svg" viewBox="0 0 1219.76 260.11"><path d="M1214.68,215.69c-3.76-3.65-10.8-4.15-14.88-4.32-.16-2.94-.31-16-25-46.84-18.24,10.94-73.72,27.7-89.26,24.74-.53,17.74-.31,44.5,13,59.07,7.12,7.79,20.7,6.24,24.45,6.13,7.32,7.1,11.21,4.32,13.63-2.4.77-2.26,18.75-6.2,28.49-7.95,8.13,6.23,12.18,5.68,13.9-4,1.36-3.78,15.47-8.51,20.67-21.81,6.66-2,19.94,8,5.55,13.93-19.77,8.13-7.14,13.45,3,12.15C1221.78,242.69,1222.65,223.43,1214.68,215.69Z" fill="#ff781d"/><path d="M1129.64,218.52c-2.69-3.4-8-12.65-9.11-18.6,3.52.07,28.34-7.93,34.27-10,1.77,7.32,3.16,19.76,3.16,19.76S1142.92,216.5,1129.64,218.52Z" fill="#6cf"/><path d="M1187.16,104c-2.87-11.13-13.68-21.9-21.47-33.8-2.2-3.13-13.25-43.53-18.49-19,.33,28.17-43.5,11.09-75.8,34.46-4.71,8-18.28-20.4-24.7-12.66-1.36,15.17,4,24,.39,48.13C1030.48,223.66,1216.13,180.19,1187.16,104Zm-34.58-45c.07.68,1.33,1.65-1,2.17.29-.81.59-1.62.89-2.43Z" fill="#d8d8d8"/><path d="M1102.84,119.76a6.53,6.53,0,0,0-1.23-1.39,6.74,6.74,0,0,0-4.51-1.6,6.66,6.66,0,0,0-3.55,1.18,7.15,7.15,0,0,0-2.71,4,5.13,5.13,0,0,0,.76,3.85,5.3,5.3,0,0,0,2.26,1.85,4.83,4.83,0,0,0,1.22.87l1.22.42a5,5,0,0,0,2.63-.15l.67-.23a3.76,3.76,0,0,0,1.71-1l.11-.09a4.64,4.64,0,0,0,2-2.08l.42-1.22a5.1,5.1,0,0,0-.15-2.63A5.7,5.7,0,0,0,1102.84,119.76Z" fill="#fff"/><path d="M1142.16,107.77a3.75,3.75,0,0,0-1.51-1.21,5.08,5.08,0,0,0-2.52-.52,9.07,9.07,0,0,0-4,1.25,6.1,6.1,0,0,0-2.8,5.33,6.2,6.2,0,0,0,2.14,4.33,5.64,5.64,0,0,0,6.44.64,4.13,4.13,0,0,0,.89-.5,5.32,5.32,0,0,0,2.12-3.15c.13-.61.27-1.22.41-1.83a5,5,0,0,0-.16-2.64A3.87,3.87,0,0,0,1142.16,107.77Z" fill="#fff"/><path d="M1204.6,77.59c3.33,4.54-2.19,59-16.48,59.15,13.92-30.74-16.84-51-27.55-81.5-15.64-34-9.16,1.41-22.68,12.62-.87.26-33.79.26-63.47,14.4-18.8,18.13-30.06-65.18-29.29,49.35,2.68,1.29-4.22,5.28,7.5,29.18,5.17,4.54,30.28,25.66-5.69,4.75C916.79,56.71,1156.27-92.83,1204.6,77.59Z" fill="#d4f9ff"/><path d="M1127.79,16.05c-5.48-6.64-16.14-8.89-24.32-9-7.35-.13-18.11,5.09-15.83,14.18,1.19,4.74,5.81,6.22,10,7.19l1.91.46a39.53,39.53,0,0,0,12.29,1.38C1118.38,30.12,1135.32,25.2,1127.79,16.05Z" fill="#e3ffff"/><path d="M1146.43,22.75a5.5,5.5,0,0,0-5.33-3.42,5.84,5.84,0,0,0-4.92,3.08,3.77,3.77,0,0,0,.38,4,5.19,5.19,0,0,0,3.68,3.66,4.83,4.83,0,0,0,3.58-.5,4.61,4.61,0,0,0,3.15-3.29A4.78,4.78,0,0,0,1146.43,22.75Z" fill="#e3ffff"/><path d="M1099.44,138.17a1,1,0,0,1-.6-1.8A.95.95,0,0,1,1099.44,138.17Zm5.42-2.74a1,1,0,0,0,.61,1.8A1,1,0,0,0,1104.86,135.43Zm-4,6.85a.7.7,0,0,0-.28-.23.73.73,0,0,0-.35-.09.77.77,0,0,0-.37,0l-.23.11a1,1,0,0,0-.32.37l-.08.23a1,1,0,0,0,0,.49l0,.06a1,1,0,0,0,.48.54.7.7,0,0,0,.35.09.68.68,0,0,0,.37,0l.23-.11a1,1,0,0,0,.31-.36l.08-.23a.86.86,0,0,0,0-.5v-.05A.76.76,0,0,0,1100.86,142.28Zm5.4-1.59a.94.94,0,0,0,.6,1.79A.94.94,0,0,0,1106.26,140.69Zm-3.49,5.75a.94.94,0,0,0,.6,1.79A.94.94,0,0,0,1102.77,146.44ZM1136.23,128a1,1,0,0,0,.61,1.8A1,1,0,0,0,1136.23,128Zm.86,3.55a1,1,0,0,0,.6,1.8A.95.95,0,0,0,1137.09,131.58Zm5.94-5.15a1,1,0,0,0,.6,1.8A.95.95,0,0,0,1143,126.43Zm.13,4.67a.94.94,0,0,0,.6,1.79A.94.94,0,0,0,1143.16,131.1Zm-1.27,5.9a.94.94,0,0,0,.6,1.79A.94.94,0,0,0,1141.89,137Zm17.66-124.53c-49.27-26.91-110.68-8.62-138.86,39-30.63,57.16.1,115.44,61.93,128.74-2.52,2-3.57,4.52-2.3,6.77,2.74,4.18,5.22,2.52,4.3,9-.7,21.33,1.43,50.17,21.17,58.22,13.36,4.73,14.27-3.61,20.32,4.52a6.36,6.36,0,0,0,4.37,1.36c4-.24,5.74-2.95,6-6.74.66-2.52,2.81-2,5.42-2.81,6.71-1.56,12.84-3.05,19.55-4.77,7.67-3.22,6.8,6.82,14.57,2,3-1.4,1.89-5.09,3.63-7.67,7.46-5.88,17.22-9.8,19.73-20.51,6-2.29,15.07,3.92,9.54,10.1-4,3.36-9.76,3.14-14.23,7.08-1.78,2-.61,4.43,1.89,6.83,6.94,6.5,17.77.78,21.13-6.45,5.91-12.94-2.06-26.91-15.61-26.26-1,0-2.07.26-2.34-1.19-2.72-16.25-12.94-30.18-22.33-43.68.87-5.42,4.81-6.36-.58-11.83,7.58-9.49,16.18-18.93,21.52-30.5C1218.36,83.13,1199,33,1159.55,12.47ZM1217,222c6.77,20.35-17.72,30-21.47,16.71,2.82-4.55,10.18-4.24,14.43-7.89,6.63-8.25-2.46-13.86-10.07-13.52C1198.43,206,1216,215.76,1217,222Zm-35.39-47.29c17.53,26,27.8,48-2.42,63.32-2.71-13.76-5.53-29.13-13-40.62,2.72,13.3,10.12,26.18,10.86,40.32.88,3.52-.06,9.12-4.18,9.58-9.24.16-16-29.79-17.65-33.19a9,9,0,0,1-1.47.65,159.64,159.64,0,0,0,11.22,28.6l-28.15,6.95a175.2,175.2,0,0,0-4.39-29.2,8.2,8.2,0,0,1-1.59.19c11.36,46.86-3.71,40.87-8.27,29.33-6.13-12.73-5.38-26.41-9.78-39-1.6,4.2,1.38,11.3,1.7,16a140.34,140.34,0,0,0,5.41,20.47c0,1.65,2.91,4.25,1.24,5.32-34.16,6.89-36.6-38.51-34.91-62.46,37.27,3.82,63-2.27,89.36-24.74C1177.67,169.05,1179.61,171.86,1181.63,174.68Zm-4.93-23.34c-13.29,13.66-31.65,19.26-49.7,23.94-29.68,8.3-62.69,6.26-76.28-21.75-6.47-14.7-3.41-31.46-1.3-46.48-1.27-12.41-3.13-24-1.57-36.4,4,2.48,7.6,4.54,11,8,3.73,2.83,5.76,7.82,9.7,8.84,12.17-6.34,22.2-11.29,39-15,55.52-12.07,23.56,8.3,44.11-29.27,7.73,9.84,11.64,22,17.33,33.1C1190.8,102.32,1200.09,126,1176.7,151.34Zm13.06-15.53c-1.41,1.77,1-4.74,1.14-5.86a42.86,42.86,0,0,0-1.28-24.48C1185,92.23,1175.1,83,1168.48,71.58c-4.57-10.49-9.26-23-17-31-6.81,6.71-7.71,17.57-10.68,25.41-10.12.56-20,1.28-29.8,3.69-66.32,16.91-25.7,23.61-59.69,1-2-.73-4.84-4.1-5.3-.61-1.19,11.87-.21,23.76,1.6,35.65-4,30.92-6.65,49.23,18.79,68.09C978.25,139,1000.78,26.55,1085,4.67,1169.71-16.45,1236,67.92,1189.76,135.81Zm-135.55-34.32c-1-7-2.34-13.54-2.09-20.66,4.16,3.38,10.62,6.7,11.65,11.63C1048.68,77.61,1057.62,98.29,1054.21,101.49Zm98.88-47.61c-1.8,4.08-6.68,15.59-3.91,16.1,4.5-19.69,8,1.86,12.36,2.91C1159,66.36,1156.83,60,1153.09,53.88Zm-48.88,67.19c2,9.64-11.46,12.52-14,3.65C1088.19,115.06,1101.71,112.19,1104.21,121.07Zm-1.22.32c-5-11.7-18.55,2.17-7.65,7.17-8-7.41,7.09-14.17,7.56-3.86A5.91,5.91,0,0,0,1103,121.39Zm41.45-11c2,9.64-11.46,12.52-14,3.65C1128.41,104.34,1141.94,101.47,1144.44,110.35Zm-1.22.32c-5-11.7-18.55,2.18-7.65,7.17-8-7.41,7.08-14.17,7.56-3.86A5.91,5.91,0,0,0,1143.22,110.67Zm-19.89,24.26c1.27,3.59,4.28,7.28,8.12,4.69-6.46-.85-6.38-3.65-8.44-8.77-.65-2.79-2.81-5.33-1.61-7.91,7.2-6.31,3.12-7.15-3.44-4.88-2.14.92-7.17,1-4.85,4,2,2,6,0,6.64,3.48,1.45,6.21,2.68,14-3.38,17.88,5.68,1.3,6-7.1,5.84-11.07C1122.55,133.14,1123,134.24,1123.33,134.93Zm34.13-6.45c14.43-4.91,18.79.11,22.63-1.52-7.3-2-16.13-3.43-22.89,1.18Zm-65.77,8.4c-9.37-2.26-14.42-3.27-23.29-1.46C1071.26,132.48,1088.79,132.71,1091.69,136.88ZM1156,123.64c5.46-6.38,13.63-8.34,21.64-9.52-.71,2.08-2.29,1.76-4.49,2.37-6.6,1.19-12.06,2.61-16.86,7.65Zm-65.88,19c-10.33-.83-14.5-.49-23.1,2.86C1069.09,141.91,1085.84,139.77,1090.12,142.69Zm.47,6c-11.81,1.24-13.64,7.86-20.21,10.27C1075.55,154.12,1083.78,146.82,1090.59,148.71Zm79-42.18c-6.35,3.72-15,5.4-18.67,13C1151.6,115.27,1163.2,105.87,1169.6,106.53Zm-50.29-78.3c-21,7-43.65-7.29-24.1-17.92C1118.64-.48,1145.29,18.13,1119.31,28.23Zm-20.47-18c-12.73,4.32-12.81,13.36-1.09,17.13,10.26,3.65,30.28.41,30.93-9.53C1128.19,8.69,1108.13,6.56,1098.84,10.19Zm44.58,18.94c-6.46,1.95-9.87-7.14-3.72-9.94C1146.73,16.45,1149.92,26.86,1143.42,29.13Zm-3-8.87c-8.92,5.38,5.8,12.94,5.2,2.8h0A4.17,4.17,0,0,0,1140.44,20.26Zm-3.92,189.1c-3.86,1.19-5.86-4.49-2-6C1138.37,202.18,1140.37,207.85,1136.52,209.36Zm-1.61-4.8a1.9,1.9,0,0,0,1.21,3.6A1.9,1.9,0,0,0,1134.91,204.56ZM1147,214.88c-5.71,1.89-14.59,4.06-18.72,3.86l-9.57-19.82a95.38,95.38,0,0,0,37.13-10.37s2.71,20.58,2.88,21.86C1156.12,211.7,1149.55,214,1147,214.88Zm-17.88,2.69c10-1.28,15.47-2.82,28.23-7.91l-2.53-19.19a96,96,0,0,1-34.18,9.54Z"/><path d="M23.62,206.09a22.74,22.74,0,0,1-16.68-6.93A22.91,22.91,0,0,1,0,182.31V172.24H23.62v4.46c0,3.3.1,5.06.33,5.28s2,.33,5.28.33h60c3.41,0,5.2-.1,5.36-.33s.25-2,.25-5.28V164.15c0-3.3-.08-5.06-.25-5.28s-2-.34-5.36-.34H23.62A22.74,22.74,0,0,1,6.94,151.6,22.73,22.73,0,0,1,0,134.92V111A22.91,22.91,0,0,1,6.94,94.13a22.75,22.75,0,0,1,16.68-6.94h71.5a23.14,23.14,0,0,1,16.68,6.94A22.67,22.67,0,0,1,118.9,111v10.08H94.79v-4.46c0-3.3-.08-5.06-.25-5.29s-2-.33-5.36-.33H29.23c-3.3,0-5.07.11-5.28.33s-.33,2-.33,5.29v12.55c0,3.3.1,5.07.33,5.28s2,.33,5.28.33H95.12a23.14,23.14,0,0,1,16.68,6.94,22.48,22.48,0,0,1,7.1,16.68v23.94a22.68,22.68,0,0,1-7.1,16.85,23.13,23.13,0,0,1-16.68,6.93Zm113,38V110.31h73.82a22.21,22.21,0,0,1,16.51,6.94,22.64,22.64,0,0,1,6.77,16.35v49.21a22.65,22.65,0,0,1-6.77,16.35,22.2,22.2,0,0,1-16.51,6.93H160v38Zm29.06-61.44h39.14c3.31,0,5-.1,5.2-.33s.25-2,.25-5.28V139.38c0-3.3-.08-5.06-.25-5.29s-1.89-.33-5.2-.33H165.63q-4.95,0-5.28.33c-.22.23-.33,2-.33,5.29V177c0,3.3.11,5.07.33,5.28S162.33,182.64,165.63,182.64Zm103.54,23.45a23.53,23.53,0,0,1-23.28-23.28V146.48h73.65v-7.1c0-3.3-.08-5.06-.25-5.29s-2-.33-5.36-.33h-68V110.31h73.82a22.21,22.21,0,0,1,16.51,6.94A22.64,22.64,0,0,1,343,133.6v72.49ZM275,182.64h44.59V167.29h-50.2V177c0,3.3.11,5.07.33,5.28S271.65,182.64,275,182.64ZM378.5,206.09a23.69,23.69,0,0,1-23.29-23.28V133.6a23.71,23.71,0,0,1,23.29-23.29h73.65v23.45H384.28c-3.31,0-5.07.11-5.29.33s-.33,2-.33,5.29V177c0,3.3.11,5.07.33,5.28s2,.33,5.29.33h68v23.45Zm110.64,0a23.69,23.69,0,0,1-23.29-23.28V133.6a23.71,23.71,0,0,1,23.29-23.29h50.53a22.24,22.24,0,0,1,16.52,6.94A22.64,22.64,0,0,1,563,133.6v36.33H489.3V177c0,3.3.11,5.07.33,5.28s2,.33,5.29.33h68v23.45Zm.16-57h50.21v-9.74c0-3.3-.09-5.06-.25-5.29s-2-.33-5.37-.33h-39c-3.3,0-5.07.11-5.29.33s-.33,2-.33,5.29Zm115.43,57A23.66,23.66,0,0,1,581,182.31V111a23.68,23.68,0,0,1,23.77-23.78h94.8V111H610.18c-3.3,0-5,.11-5.2.33s-.25,2-.25,5.29V176.7c0,3.3.09,5.06.25,5.28s1.9.33,5.2.33h89.35v23.78Zm134.59,0A23.53,23.53,0,0,1,716,182.81V146.48h73.65v-7.1c0-3.3-.08-5.06-.25-5.29s-2-.33-5.36-.33H716V110.31h73.81a22.24,22.24,0,0,1,16.52,6.94,22.64,22.64,0,0,1,6.77,16.35v72.49Zm5.78-23.45h44.59V167.29h-50.2V177c0,3.3.11,5.07.33,5.28S741.8,182.64,745.1,182.64Zm109.16,23.45a23.67,23.67,0,0,1-23.45-23.28V81.41h23.45v28.9h36.49v23.45H854.26V177c0,3.3.11,5.07.33,5.28s2,.33,5.28.33h30.88v23.45Zm73.81,0a23.67,23.67,0,0,1-23.28-23.28v-4.29h23.45v.82c0,1.76.11,2.76.33,3s1.21.33,3,.33H975.3c1.76,0,2.73-.1,2.89-.33a8.5,8.5,0,0,0,.25-3v-6.11a8.54,8.54,0,0,0-.25-3c-.16-.22-1.13-.33-2.89-.33H928.07a23.53,23.53,0,0,1-23.28-23.29v-13a23.69,23.69,0,0,1,23.28-23.29H978.6a23.54,23.54,0,0,1,23.45,23.29v4.29H978.44v-.82a8.66,8.66,0,0,0-.25-3c-.16-.22-1.13-.33-2.89-.33H931.54q-2.64,0-3,.33c-.22.23-.33,1.22-.33,3v6.11q0,2.64.33,3t3,.33H978.6a22.64,22.64,0,0,1,16.6,6.85,22.41,22.41,0,0,1,6.85,16.43v13.05a23.53,23.53,0,0,1-23.45,23.28Z" fill="#fff" fill-opacity="0.25" stroke="#fff" stroke-width="2" stroke-opacity="0.5" /></svg>